<svg
xmlns="http://www.w3.org/2000/svg" width="192" height="68" viewBox="0 0 293.94 103.78"><title>their-story-is-our-story-logo</title><g
id="Layer_2" data-name="Layer 2"><g
id="Layer_1-2" data-name="Layer 1"><path
d="M16.71,8.36V45.82H8.29V8.36H0V.94H24.93V8.35H16.71Z" style="fill:#487939"/><path
d="M48.72,45.82V27.42H39.35v18.4H31V.94h8.36v19h9.37V.94h8.42V45.82Z" style="fill:#487939"/><path
d="M65.36,45.82V.94H86.79V8.15H73.72V19.27h9v6.6h-9V38.34H86.79v7.48Z" style="fill:#487939"/><path
d="M93.8,45.82V.94h8.36V45.82Z" style="fill:#487939"/><path
d="M131.26,46.09c-3.3,0-4.58-2.7-4.58-6.6V31.07c0-2.09-1.08-3.84-3.44-3.84h-4.38v18.6H110.5V.94h13.81c6.13,0,10.24,3.5,10.24,9.77V17A6.66,6.66,0,0,1,129.5,24a6.89,6.89,0,0,1,5.19,6.81V39a6.29,6.29,0,0,0,1.62,4.58v2.49h-5.05Zm-4.85-35c0-2-.88-3.23-3-3.23h-4.58V21h4.25c2.16,0,3.3-1.15,3.3-3.57V11.05Z" style="fill:#487939"/><path
d="M165.43,46.83c-7.68,0-12.47-4.58-12.47-11.59v-3.1h7.68v2.63c0,3.3,1.55,5.12,4.58,5.12s4.45-1.75,4.45-4.51c0-3.57-2.29-6-6.74-9.3s-9.57-7.75-9.57-14C153.36,5.59,157.54,0,165.62,0c7.08,0,11.79,4.85,11.79,11.52v2.9H169.8v-2.7c0-2.76-1.42-4.78-4.25-4.78a3.78,3.78,0,0,0-4,4c0,3.77,2.22,5.73,7.21,9.37,5.32,4,9.1,8,9.1,14.08C177.83,41.64,172.84,46.83,165.43,46.83Z" style="fill:#4f4f4f"/><path
d="M196.83,8.36V45.82h-8.42V8.36h-8.29V.94h24.93V8.35h-8.22Z" style="fill:#4f4f4f"/><path
d="M220.89,46.83c-7.82,0-12.74-5.12-12.74-12.26V12.2c0-7.08,4.92-12.2,12.74-12.2s12.74,5.12,12.74,12.2V34.57C233.62,41.71,228.77,46.83,220.89,46.83Zm4.31-35.17a4,4,0,0,0-4.31-4.38c-2.7,0-4.25,1.75-4.25,4.38V35.11c0,2.63,1.55,4.38,4.25,4.38a4,4,0,0,0,4.31-4.38Z" style="fill:#4f4f4f"/><path
d="M259.7,46.09c-3.3,0-4.58-2.7-4.58-6.6V31.07c0-2.09-1.08-3.84-3.44-3.84H247.3v18.6h-8.36V.94h13.81c6.13,0,10.24,3.5,10.24,9.77V17A6.66,6.66,0,0,1,257.94,24a6.89,6.89,0,0,1,5.19,6.81V39a6.29,6.29,0,0,0,1.62,4.58v2.49H259.7Zm-4.85-35c0-2-.88-3.23-3-3.23h-4.58V21h4.25c2.16,0,3.3-1.15,3.3-3.57V11.05Z" style="fill:#4f4f4f"/><path
d="M283.76,27.49V45.82H275.4V27.49L265.5.94h8.76l5.79,18.26L285.58.94h8.36Z" style="fill:#4f4f4f"/><path
d="M4.22,102.77V57.89h8.36v44.88Z" style="fill:#4f4f4f"/><path
d="M29,103.78c-7.68,0-12.47-4.58-12.47-11.59v-3.1h7.68v2.63c0,3.3,1.55,5.12,4.58,5.12s4.45-1.75,4.45-4.51c0-3.57-2.29-6-6.74-9.3s-9.57-7.75-9.57-14C16.88,62.54,21.06,57,29.14,57c7.08,0,11.79,4.85,11.79,11.52v2.9H33.32v-2.7c0-2.76-1.42-4.78-4.25-4.78a3.78,3.78,0,0,0-4,4c0,3.77,2.22,5.73,7.21,9.37,5.32,4,9.1,8,9.1,14.08C41.35,98.59,36.37,103.78,29,103.78Z" style="fill:#4f4f4f"/><path
d="M67.09,103.78c-7.82,0-12.74-5.12-12.74-12.26V69.14c0-7.08,4.92-12.2,12.74-12.2s12.74,5.12,12.74,12.2V91.51C79.83,98.66,75,103.78,67.09,103.78ZM71.41,68.6a4,4,0,0,0-4.31-4.38c-2.7,0-4.25,1.75-4.25,4.38V92.05c0,2.63,1.55,4.38,4.25,4.38a4,4,0,0,0,4.31-4.38Z" style="fill:#487939"/><path
d="M97,103.78c-7.28,0-12.67-4.65-12.67-11.39V57.89h8.49v34.5c0,2.63,1.48,4.11,4.18,4.11s4.25-1.48,4.25-4.11V57.89h8.15v34.5C109.41,99.13,104.29,103.78,97,103.78Z" style="fill:#487939"/><path
d="M135.22,103c-3.3,0-4.58-2.7-4.58-6.6V88c0-2.09-1.08-3.84-3.44-3.84h-4.38v18.6h-8.36V57.89h13.81c6.13,0,10.24,3.5,10.24,9.77V74a6.66,6.66,0,0,1-5,6.94,6.89,6.89,0,0,1,5.19,6.81V96a6.29,6.29,0,0,0,1.62,4.58V103h-5.05Zm-4.85-35c0-2-.88-3.23-3-3.23h-4.58V78h4.25c2.16,0,3.3-1.15,3.3-3.57V68Z" style="fill:#487939"/><path
d="M164.19,103.78c-7.68,0-12.47-4.58-12.47-11.59v-3.1h7.68v2.63c0,3.3,1.55,5.12,4.58,5.12s4.45-1.75,4.45-4.51c0-3.57-2.29-6-6.74-9.3s-9.57-7.75-9.57-14c0-6.47,4.18-12.06,12.26-12.06,7.08,0,11.79,4.85,11.79,11.52v2.9h-7.61v-2.7c0-2.76-1.42-4.78-4.25-4.78a3.78,3.78,0,0,0-4,4c0,3.77,2.22,5.73,7.21,9.37,5.32,4,9.1,8,9.1,14.08C176.59,98.59,171.61,103.78,164.19,103.78Z" style="fill:#4f4f4f"/><path
d="M195.59,65.3v37.46h-8.42V65.3h-8.29V57.89h24.93V65.3Z" style="fill:#4f4f4f"/><path
d="M219.65,103.78c-7.82,0-12.74-5.12-12.74-12.26V69.14c0-7.08,4.92-12.2,12.74-12.2s12.74,5.12,12.74,12.2V91.51C232.39,98.66,227.53,103.78,219.65,103.78ZM224,68.6a4,4,0,0,0-4.31-4.38c-2.7,0-4.25,1.75-4.25,4.38V92.05c0,2.63,1.55,4.38,4.25,4.38A4,4,0,0,0,224,92.05Z" style="fill:#4f4f4f"/><path
d="M258.46,103c-3.3,0-4.58-2.7-4.58-6.6V88c0-2.09-1.08-3.84-3.44-3.84h-4.38v18.6H237.7V57.89h13.81c6.13,0,10.24,3.5,10.24,9.77V74a6.66,6.66,0,0,1-5.05,6.94,6.89,6.89,0,0,1,5.19,6.81V96a6.29,6.29,0,0,0,1.62,4.58V103h-5.05Zm-4.85-35c0-2-.88-3.23-3-3.23h-4.58V78h4.25c2.16,0,3.3-1.15,3.3-3.57V68Z" style="fill:#4f4f4f"/><path
d="M282.52,84.44v18.33h-8.36V84.44l-9.91-26.55H273l5.79,18.26,5.53-18.26h8.36Z" style="fill:#4f4f4f"/></g></g></svg>